<svg height="512" viewBox="0 0 128 128" width="512" xmlns="http://www.w3.org/2000/svg"><g><path d="m6.306 39.363h115.387v82.331h-115.387z" fill="#dfeef4"/><path d="m6.306 15.838h115.387v23.525h-115.387z" fill="#f45858"/><path d="m60.269 6.306h7.462v19.062h-7.462z" fill="#6d7a84"/><path d="m90.052 6.306h7.462v19.062h-7.462z" fill="#6d7a84"/><path d="m30.486 6.306h7.462v19.062h-7.462z" fill="#6d7a84"/><g fill="#3ea2e5"><circle cx="27.661" cy="57.048" r="6.283"/><circle cx="51.887" cy="57.048" r="6.283"/><circle cx="76.113" cy="57.048" r="6.283"/><circle cx="100.339" cy="57.048" r="6.283"/><circle cx="27.661" cy="80.528" r="6.283"/><circle cx="51.887" cy="80.528" r="6.283"/><circle cx="76.113" cy="80.528" r="6.283"/><circle cx="100.339" cy="80.528" r="6.283"/><circle cx="27.661" cy="104.009" r="6.283"/><circle cx="51.887" cy="104.009" r="6.283"/><circle cx="76.113" cy="104.009" r="6.283"/><circle cx="100.339" cy="104.009" r="6.283"/></g><g><path d="m6.307 102.55a1.75 1.75 0 0 0 1.75-1.75v-4.5a1.75 1.75 0 0 0 -3.5 0v4.5a1.749 1.749 0 0 0 1.75 1.75z"/><path d="m121.693 24.68a1.75 1.75 0 0 0 1.75-1.75v-7.092a1.749 1.749 0 0 0 -1.75-1.75h-22.429v-7.781a1.75 1.75 0 0 0 -1.75-1.75h-7.462a1.749 1.749 0 0 0 -1.75 1.75v7.781h-18.821v-7.781a1.749 1.749 0 0 0 -1.75-1.75h-7.462a1.749 1.749 0 0 0 -1.75 1.75v7.781h-18.819v-7.781a1.749 1.749 0 0 0 -1.75-1.75h-7.464a1.75 1.75 0 0 0 -1.75 1.75v7.781h-22.429a1.749 1.749 0 0 0 -1.75 1.75v71.807a1.75 1.75 0 0 0 3.5 0v-46.532h111.886v78.83h-111.886v-10.9a1.75 1.75 0 0 0 -3.5 0v12.655a1.749 1.749 0 0 0 1.75 1.75h115.386a1.749 1.749 0 0 0 1.75-1.75v-91.091a1.75 1.75 0 0 0 -3.5 0v7.006h-111.886v-20.025h20.679v7.781a1.75 1.75 0 0 0 1.75 1.75h7.462a1.749 1.749 0 0 0 1.75-1.75v-7.781h18.821v7.781a1.749 1.749 0 0 0 1.75 1.75h7.462a1.749 1.749 0 0 0 1.75-1.75v-7.781h18.819v7.781a1.749 1.749 0 0 0 1.75 1.75h7.462a1.75 1.75 0 0 0 1.75-1.75v-7.781h20.679v5.342a1.751 1.751 0 0 0 1.752 1.75zm-85.493-1.061h-3.964v-15.562h3.964zm29.783 0h-3.964v-15.562h3.962zm29.783 0h-3.966v-15.562h3.962z"/><path d="m27.66 65.081a8.033 8.033 0 1 0 -8.032-8.033 8.041 8.041 0 0 0 8.032 8.033zm0-12.566a4.533 4.533 0 1 1 -4.532 4.533 4.537 4.537 0 0 1 4.532-4.533z"/><path d="m51.887 65.081a8.033 8.033 0 1 0 -8.033-8.033 8.042 8.042 0 0 0 8.033 8.033zm0-12.566a4.533 4.533 0 1 1 -4.533 4.533 4.537 4.537 0 0 1 4.533-4.533z"/><path d="m76.113 65.081a8.033 8.033 0 1 0 -8.033-8.033 8.042 8.042 0 0 0 8.033 8.033zm0-12.566a4.533 4.533 0 1 1 -4.533 4.533 4.538 4.538 0 0 1 4.533-4.533z"/><path d="m100.34 65.081a8.033 8.033 0 1 0 -8.033-8.033 8.041 8.041 0 0 0 8.033 8.033zm0-12.566a4.533 4.533 0 1 1 -4.533 4.533 4.537 4.537 0 0 1 4.533-4.533z"/><path d="m27.66 88.562a8.034 8.034 0 1 0 -8.032-8.034 8.042 8.042 0 0 0 8.032 8.034zm0-12.562a4.534 4.534 0 1 1 -4.532 4.533 4.537 4.537 0 0 1 4.532-4.533z"/><path d="m51.887 88.562a8.034 8.034 0 1 0 -8.033-8.034 8.043 8.043 0 0 0 8.033 8.034zm0-12.567a4.534 4.534 0 1 1 -4.533 4.533 4.537 4.537 0 0 1 4.533-4.528z"/><path d="m76.113 88.562a8.034 8.034 0 1 0 -8.033-8.034 8.043 8.043 0 0 0 8.033 8.034zm0-12.567a4.534 4.534 0 1 1 -4.533 4.533 4.538 4.538 0 0 1 4.533-4.528z"/><path d="m100.34 88.562a8.034 8.034 0 1 0 -8.033-8.034 8.042 8.042 0 0 0 8.033 8.034zm0-12.567a4.534 4.534 0 1 1 -4.533 4.533 4.537 4.537 0 0 1 4.533-4.528z"/><path d="m27.66 112.042a8.033 8.033 0 1 0 -8.032-8.033 8.042 8.042 0 0 0 8.032 8.033zm0-12.566a4.533 4.533 0 1 1 -4.532 4.533 4.537 4.537 0 0 1 4.532-4.533z"/><path d="m51.887 112.042a8.033 8.033 0 1 0 -8.033-8.033 8.043 8.043 0 0 0 8.033 8.033zm0-12.566a4.533 4.533 0 1 1 -4.533 4.533 4.537 4.537 0 0 1 4.533-4.533z"/><path d="m76.113 112.042a8.033 8.033 0 1 0 -8.033-8.033 8.043 8.043 0 0 0 8.033 8.033zm0-12.566a4.533 4.533 0 1 1 -4.533 4.533 4.538 4.538 0 0 1 4.533-4.533z"/><path d="m100.34 112.042a8.033 8.033 0 1 0 -8.033-8.033 8.042 8.042 0 0 0 8.033 8.033zm0-12.566a4.533 4.533 0 1 1 -4.533 4.533 4.537 4.537 0 0 1 4.533-4.533z"/></g></g></svg>