<?xml version="1.0"?>
<svg xmlns="http://www.w3.org/2000/svg" id="Capa_1" enable-background="new 0 0 511.997 511.997" height="512px" viewBox="0 0 511.997 511.997" width="512px" class=""><g><g><g><g><path d="m442.968 17.745v462.898c0 5.667-4.581 10.248-10.248 10.248 0 0-237.025 0-316.033 0-5.667 0-10.248-4.581-10.248-10.248 0-115.724 0-462.898 0-462.898 0-5.657 4.581-10.248 10.248-10.248h316.033c5.667 0 10.248 4.591 10.248 10.248z" fill="#eff5f6" data-original="#EFF5F6" class=""/><path d="m442.968 17.745v462.898c0 5.667-4.581 10.248-10.248 10.248h-33.788c5.657 0 10.248-4.581 10.248-10.248v-462.898c0-5.657-4.591-10.248-10.248-10.248h33.788c5.667 0 10.248 4.591 10.248 10.248z" fill="#cbe5e7" data-original="#CBE5E7" class=""/><path d="m106.439 429.378v51.265c0 5.667 4.581 10.248 10.248 10.248h316.033c5.667 0 10.248-4.581 10.248-10.248v-51.265z" fill="#1475cb" data-original="#1475CB" class="" style="fill:#6BD9E7" data-old_color="#1475cb"/><path d="m409.18 429.378v51.265c0 5.667-4.591 10.248-10.248 10.248h33.788c5.667 0 10.248-4.581 10.248-10.248v-51.265z" fill="#0e6ac2" data-original="#0E6AC2" class="" data-old_color="#0e6ac2" style="fill:#1ACCD2"/></g><g><path d="m133.604 504.497h-54.331c-5.66 0-10.248-4.588-10.248-10.248v-161.272c0-5.994 2.624-11.687 7.18-15.581l16.917-14.458c7.668-6.553 18.964-6.553 26.632 0l16.917 14.458c4.557 3.894 7.18 9.588 7.18 15.581v161.272c.001 5.66-4.587 10.248-10.247 10.248z" fill="#c9f0fd" data-original="#C9F0FD"/><path d="m143.85 332.981v161.263c0 5.667-4.591 10.248-10.248 10.248h-29.76c5.657 0 10.248-4.581 10.248-10.248v-161.263c0-5.995-2.623-11.693-7.184-15.587l-15.352-13.128 1.568-1.332c7.666-6.548 18.969-6.548 26.635 0l16.92 14.46c4.55 3.894 7.173 9.592 7.173 15.587z" fill="#9ce6fb" data-original="#9CE6FB"/><path d="m143.85 359.431v134.813c0 5.667-4.591 10.248-10.248 10.248h-54.325c-5.667 0-10.248-4.581-10.248-10.248v-134.813z" fill="#fc9085" data-original="#FC9085" class=""/><path d="m143.85 359.431v134.813c0 5.667-4.591 10.248-10.248 10.248h-29.76c5.657 0 10.248-4.581 10.248-10.248v-134.813z" fill="#fc7c6a" data-original="#FC7C6A" class=""/><g><path d="m115.153 307.255h-17.429c-10.884 0-19.229-9.666-17.64-20.434l10.676-72.366c1.147-7.776 7.82-13.536 15.679-13.536 7.86 0 14.532 5.76 15.68 13.536l10.676 72.366c1.587 10.768-6.758 20.434-17.642 20.434z" fill="#dff6fd" data-original="#DFF6FD"/><path d="m115.156 307.258h-17.432c-1.312 0-2.593-.143-3.823-.41 8.936-1.947 15.208-10.566 13.814-20.025l-10.678-72.372c-.41-2.767-1.527-5.288-3.136-7.379 2.91-3.771 7.481-6.159 12.533-6.159 3.935 0 7.563 1.445 10.361 3.853 2.787 2.419 4.745 5.8 5.319 9.684l10.678 72.372c1.589 10.762-6.753 20.436-17.636 20.436z" fill="#c9f0fd" data-original="#C9F0FD"/></g></g></g><g><circle cx="201.418" cy="91.384" fill="#fb4a59" r="37.779" data-original="#FB4A59" class="" style="fill:#FC9085" data-old_color="#fb4a59"/><path d="m239.198 91.382c0 20.87-16.92 37.78-37.78 37.78-4.74 0-9.28-.87-13.46-2.47 14.23-5.42 24.33-19.18 24.33-35.31 0-16.12-10.1-29.89-24.33-35.31 4.18-1.6 8.72-2.47 13.46-2.47 20.86 0 37.78 16.92 37.78 37.78z" fill="#f82f40" data-original="#F82F40" class="active-path" style="fill:#FC7C6A" data-old_color="#f82f40"/></g><g><path d="m442.972 54.054c4.142 0 7.5-3.358 7.5-7.5v-28.806c0-9.786-7.962-17.748-17.748-17.748h-316.042c-9.786 0-17.748 7.962-17.748 17.748v176.951c-8.065 2.78-14.299 9.876-15.595 18.662l-10.676 72.367c-1.058 7.178 1.01 14.438 5.669 19.985l-7 5.982c-6.232 5.327-9.807 13.084-9.807 21.283v161.272c0 9.786 7.962 17.748 17.748 17.748h54.331c8.356 0 15.364-5.812 17.239-13.601h153.04c4.142 0 7.5-3.358 7.5-7.5s-3.358-7.5-7.5-7.5h-152.531v-46.518h284.12v43.77c0 1.515-1.233 2.748-2.748 2.748h-95.017c-4.142 0-7.5 3.358-7.5 7.5s3.358 7.5 7.5 7.5h95.017c9.786 0 17.748-7.962 17.748-17.748v-400.271c0-4.142-3.358-7.5-7.5-7.5s-7.5 3.358-7.5 7.5v341.5h-284.12v-10.252c0-4.142-3.358-7.5-7.5-7.5s-7.5 3.358-7.5 7.5v82.624c0 1.515-1.233 2.748-2.748 2.748h-54.331c-1.515 0-2.748-1.233-2.748-2.748v-127.315h59.827v10.867c0 4.142 3.358 7.5 7.5 7.5s7.5-3.358 7.5-7.5v-44.824c0-8.199-3.575-15.957-9.808-21.283l-7-5.982c4.659-5.547 6.727-12.807 5.669-19.985l-10.675-72.367c-1.297-8.788-7.534-15.887-15.604-18.665v-176.948c0-1.515 1.233-2.748 2.748-2.748h316.042c1.515 0 2.748 1.233 2.748 2.748v28.806c0 4.142 3.358 7.5 7.5 7.5zm-306.62 297.881h-59.827v-18.958c0-3.806 1.66-7.407 4.553-9.88l10.621-9.077c1.954.478 3.974.735 6.025.735h17.429c2.052 0 4.071-.257 6.025-.735l10.621 9.077c2.894 2.473 4.553 6.074 4.553 9.88zm-10.978-64.018c.445 3.017-.407 5.95-2.4 8.259s-4.77 3.58-7.82 3.58h-17.43c-3.05 0-5.828-1.271-7.82-3.58-1.993-2.309-2.846-5.242-2.4-8.259l10.676-72.367c.6-4.065 4.15-7.131 8.259-7.131s7.66 3.065 8.26 7.131z" data-original="#000000" class=""/><path d="m385.126 174.434c-2.929-2.929-7.678-2.929-10.606 0l-19.676 19.676-3.43-3.429c-2.929-2.93-7.678-2.929-10.606 0-2.929 2.929-2.929 7.678 0 10.606l8.733 8.732c1.464 1.465 3.384 2.197 5.303 2.197s3.839-.732 5.303-2.197l24.979-24.979c2.93-2.928 2.93-7.677 0-10.606z" data-original="#000000" class=""/><path d="m169.583 168.576c-4.142 0-7.5 3.358-7.5 7.5s3.358 7.5 7.5 7.5h63.671c4.142 0 7.5-3.358 7.5-7.5s-3.358-7.5-7.5-7.5z" data-original="#000000" class=""/><path d="m303.804 195.776h-134.221c-4.142 0-7.5 3.358-7.5 7.5s3.358 7.5 7.5 7.5h134.221c4.142 0 7.5-3.358 7.5-7.5s-3.358-7.5-7.5-7.5z" data-original="#000000" class=""/><path d="m385.126 253.996c-2.929-2.929-7.678-2.929-10.606 0l-19.676 19.676-3.43-3.429c-2.929-2.93-7.678-2.929-10.606 0-2.929 2.929-2.929 7.678 0 10.606l8.733 8.732c1.464 1.465 3.384 2.197 5.303 2.197s3.839-.732 5.303-2.197l24.979-24.979c2.93-2.928 2.93-7.677 0-10.606z" data-original="#000000" class=""/><path d="m169.583 263.138h63.671c4.142 0 7.5-3.358 7.5-7.5s-3.358-7.5-7.5-7.5h-63.671c-4.142 0-7.5 3.358-7.5 7.5s3.358 7.5 7.5 7.5z" data-original="#000000" class=""/><path d="m303.804 275.338h-134.221c-4.142 0-7.5 3.358-7.5 7.5s3.358 7.5 7.5 7.5h134.221c4.142 0 7.5-3.358 7.5-7.5s-3.358-7.5-7.5-7.5z" data-original="#000000" class=""/><path d="m374.52 333.558-19.676 19.676-3.43-3.429c-2.929-2.93-7.678-2.929-10.606 0-2.929 2.929-2.929 7.678 0 10.606l8.733 8.732c1.464 1.465 3.384 2.197 5.303 2.197s3.839-.732 5.303-2.197l24.979-24.979c2.929-2.929 2.929-7.678 0-10.606-2.928-2.929-7.677-2.929-10.606 0z" data-original="#000000" class=""/><path d="m169.583 342.7h63.671c4.142 0 7.5-3.358 7.5-7.5s-3.358-7.5-7.5-7.5h-63.671c-4.142 0-7.5 3.358-7.5 7.5s3.358 7.5 7.5 7.5z" data-original="#000000" class=""/><path d="m169.583 369.9h134.221c4.142 0 7.5-3.358 7.5-7.5s-3.358-7.5-7.5-7.5h-134.221c-4.142 0-7.5 3.358-7.5 7.5s3.358 7.5 7.5 7.5z" data-original="#000000" class=""/><path d="m201.417 46.105c-24.967 0-45.279 20.312-45.279 45.279s20.312 45.279 45.279 45.279 45.279-20.312 45.279-45.279c.001-24.967-20.311-45.279-45.279-45.279zm0 75.558c-16.696 0-30.279-13.583-30.279-30.279s13.583-30.279 30.279-30.279 30.279 13.583 30.279 30.279c.001 16.696-13.582 30.279-30.279 30.279z" data-original="#000000" class=""/><path d="m362.967 105.889h9.423c4.142 0 7.5-3.358 7.5-7.5s-3.358-7.5-7.5-7.5h-9.423c-4.142 0-7.5 3.358-7.5 7.5s3.358 7.5 7.5 7.5z" data-original="#000000" class=""/><path d="m362.967 81.515h9.423c4.142 0 7.5-3.358 7.5-7.5s-3.358-7.5-7.5-7.5h-9.423c-4.142 0-7.5 3.358-7.5 7.5s3.358 7.5 7.5 7.5z" data-original="#000000" class=""/></g></g></g> </svg>
