<svg id="Layer_1" height="512" viewBox="0 0 512 512" width="512" xmlns="http://www.w3.org/2000/svg" data-name="Layer 1"><path d="m231.34 388.35-.02.05v31.39h-190.85a12 12 0 0 1 -12-12v-256.56a12 12 0 0 1 12-12h28.45v209.09a31.172 31.172 0 0 0 31.17 31.18h101.42a30.954 30.954 0 0 1 10.65 1.88z" fill="#867af4"/><path d="m280.68 388.4v31.39h-.68a68.382 68.382 0 0 0 -48 0h-.68v-31.39l.02-.05 14.01 5.09a31.106 31.106 0 0 0 21.3 0l14.01-5.09z" fill="#604af3"/><path d="m483.53 151.23v256.56a12 12 0 0 1 -12 12h-190.85v-31.39l-.02-.05 19.18-6.97a30.954 30.954 0 0 1 10.65-1.88h101.42a31.172 31.172 0 0 0 31.17-31.18v-209.09h28.45a12 12 0 0 1 12 12z" fill="#867af4"/><path d="m256 394.98v-286.95a31.206 31.206 0 0 0 10.65-1.88l33.19-12.06a30.954 30.954 0 0 1 10.65-1.88h101.42a31.172 31.172 0 0 1 31.17 31.18v224.93a31.172 31.172 0 0 1 -31.17 31.18h-101.42a30.954 30.954 0 0 0 -10.65 1.88l-19.18 6.97-14.01 5.09a31.22 31.22 0 0 1 -10.66 1.88z" fill="#d1d3d4"/><path d="m245.35 106.15-33.19-12.165a31.062 31.062 0 0 0 -10.65-1.985h-101.42a31.284 31.284 0 0 0 -31.09 31.39v224.93c0 17.22 13.87 31.68 31.09 31.68h101.42a30.731 30.731 0 0 1 10.65 1.63l19.18 6.845 14.01 5.028a31.115 31.115 0 0 0 10.64 1.848l.01-.371v-286.95a31.206 31.206 0 0 1 -10.65-1.88z" fill="#f4f8fc"/><path d="m115.65 162.58h94.43v53h-94.43z" fill="#55d8d8"/><path d="m99 348.32v-224.93a31.284 31.284 0 0 1 31.09-31.39h-30a31.284 31.284 0 0 0 -31.09 31.39v224.93c0 17.22 13.87 31.68 31.09 31.68h30c-17.22 0-31.09-14.46-31.09-31.68z" fill="#ccd3df"/><path d="m58.47 407.79v-256.56a11.991 11.991 0 0 1 10.45-11.889v-.111h-28.45a12 12 0 0 0 -12 12v256.56a12 12 0 0 0 12 12h30a12 12 0 0 1 -12-12z" fill="#b5b2f9"/><g fill="#284268"><path d="m301.92 169h39.88a6 6 0 0 0 0-12h-39.88a6 6 0 0 0 0 12z"/><path d="m396.35 206h-94.43a6 6 0 0 0 0 12h94.43a6 6 0 0 0 0-12z"/><path d="m396.35 255h-94.43a6 6 0 0 0 0 12h94.43a6 6 0 0 0 0-12z"/><path d="m396.35 304h-94.43a6 6 0 0 0 0 12h94.43a6 6 0 0 0 0-12z"/><path d="m210.08 255h-94.43a6 6 0 1 0 0 12h94.43a6 6 0 1 0 0-12z"/><path d="m210.08 304h-94.43a6 6 0 1 0 0 12h94.43a6 6 0 1 0 0-12z"/><path d="m471.53 133h-22.53v-9.61a37.329 37.329 0 0 0 -37.09-37.39h-101.42a36.894 36.894 0 0 0 -12.7 2.346l-33.19 12.112a25.219 25.219 0 0 1 -17.2.026l-33.175-12.146a36.928 36.928 0 0 0 -12.715-2.338h-58.177a6 6 0 0 0 0 12h58.177a24.989 24.989 0 0 1 8.6 1.624l33.19 12.113a37.211 37.211 0 0 0 6.7 1.79v275.045a25.222 25.222 0 0 1 -2.6-.771l-33.175-11.801a36.611 36.611 0 0 0 -12.715-2h-101.42c-13.879 0-25.09-11.8-25.09-25.68v-224.93a25.316 25.316 0 0 1 25.09-25.39h25.91a6 6 0 0 0 0-12h-25.91a37.329 37.329 0 0 0 -37.09 37.39v9.61h-22.53c-9.925 0-18.47 8.305-18.47 18.23v256.56c0 9.925 8.545 18.21 18.47 18.21h191.53a6.128 6.128 0 0 0 2.1-.486 61.422 61.422 0 0 1 43.79.026 6.093 6.093 0 0 0 2.11.46h191.53c9.925 0 18.47-8.285 18.47-18.21v-29.123a6 6 0 1 0 -12 0v29.123a6.608 6.608 0 0 1 -6.47 6.21h-184.53v-21.455l15.065-5.282a23.788 23.788 0 0 1 8.425-1.263h101.42c20.5 0 37.09-17.179 37.09-37.68v-203.32h22.53a6.625 6.625 0 0 1 6.47 6.23v205.1a6 6 0 1 0 12 0v-205.1c0-9.925-8.545-18.23-18.47-18.23zm-246.53 281h-184.53a6.608 6.608 0 0 1 -6.47-6.21v-256.56a6.625 6.625 0 0 1 6.47-6.23h22.53v203.32c0 20.5 16.594 37.68 37.09 37.68h101.42a23.8 23.8 0 0 1 8.441 1.269l15.049 5.276zm50-2.173a76.811 76.811 0 0 0 -38 0v-14.921l6.141 2.173a37.5 37.5 0 0 0 12.769 2.241 38.232 38.232 0 0 0 12.909-2.241l6.181-2.173zm162-63.507c0 13.88-11.211 25.68-25.09 25.68h-101.42a36.6 36.6 0 0 0 -12.7 1.991l-33.19 11.935a24.268 24.268 0 0 1 -2.6.645v-275.044a37.056 37.056 0 0 0 6.7-1.738l33.2-12.171a24.964 24.964 0 0 1 8.59-1.618h101.42a25.316 25.316 0 0 1 25.09 25.39z"/><path d="m210 157h-94a6 6 0 0 0 -6 6v53a6 6 0 0 0 6 6h94a6 6 0 0 0 6-6v-53a6 6 0 0 0 -6-6zm-6 53h-82v-41h82z"/></g></svg>