<svg id="Capa_1" enable-background="new 0 0 512.354 512.354" height="512" viewBox="0 0 512.354 512.354" width="512" xmlns="http://www.w3.org/2000/svg"><g><g><g><path d="m502.283 67.796c1.42 0 2.571 1.151 2.571 2.571v375.921c0 1.42-1.151 2.57-2.571 2.57h-492.213c-1.42 0-2.571-1.151-2.571-2.57v-375.922c0-1.42 1.151-2.571 2.571-2.571h492.213z" fill="#a6e7f0"/></g><g><path d="m27.667 67.796v336.91c0 14.678 11.937 26.619 26.609 26.619h170.57c11.096 0 21.789-3.14 30.985-8.98 9.207 5.828 19.912 8.98 30.935 8.98h171.311c14.673 0 26.609-11.941 26.609-26.619v-336.91z" fill="#6bd9e7"/><path d="m254.207 55.955c-8.99-8.99-21.18-14.04-33.9-14.04h-166.03c-3.65 0-6.61 2.96-6.61 6.61v356.18c0 3.65 2.96 6.62 6.61 6.62h170.57c9.67 0 18.97-3.7 26-10.33l4.78-4.5 23.793-47.454v-270.646z" fill="#efedef"/><g><g><g id="XMLID_482_"><g><path d="m464.687 48.525v356.18c0 3.65-2.96 6.62-6.61 6.62h-171.31c-9.22 0-18.13-3.37-25.05-9.47l-6.09-5.36.55-338.57 1.97-1.97c8.09-8.1 18.79-12.99 30.13-13.88l169.8-.16c3.65 0 6.61 2.96 6.61 6.61z" fill="#f9f7f8"/></g></g></g></g><path d="m362.482 477.491-20.313-9.569-20.313 9.569c-1.666.785-3.582-.431-3.582-2.272v-434.344c0-3.457 2.803-6.26 6.26-6.26h35.269c3.457 0 6.26 2.803 6.26 6.26v434.344c.001 1.842-1.915 3.057-3.581 2.272z" fill="#fd8087"/></g></g><g><path d="m54.28 418.821h170.57c11.534 0 22.508-4.328 30.942-12.186l.962.848c8.296 7.312 18.955 11.338 30.015 11.338h1.506c4.143 0 7.5-3.357 7.5-7.5s-3.357-7.5-7.5-7.5h-1.506c-7.405 0-14.542-2.696-20.098-7.592l-3.54-3.12.541-332.067c6.765-6.662 15.697-10.743 25.193-11.492 4.13-.326 7.213-3.938 6.887-8.066s-3.942-7.216-8.066-6.887c-11.644.919-22.67 5.496-31.51 12.991-10.008-8.52-22.575-13.177-35.865-13.177h-109.522c-4.143 0-7.5 3.357-7.5 7.5s3.357 7.5 7.5 7.5h109.521c10.692 0 20.751 4.121 28.362 11.612l-.542 332.227-2.425 2.287c-5.664 5.342-13.071 8.283-20.855 8.283h-169.686v-354.408h23.662c4.143 0 7.5-3.357 7.5-7.5s-3.357-7.5-7.5-7.5h-24.546c-7.784 0-14.116 6.332-14.116 14.116v11.768h-30.094c-5.552-.001-10.07 4.517-10.07 10.071v375.921c0 5.553 4.518 10.07 10.07 10.07h278.204c4.143 0 7.5-3.357 7.5-7.5s-3.357-7.5-7.5-7.5h-273.274v-366.063h25.164v329.408c0 7.785 6.332 14.118 14.116 14.118z"/><path d="m504.854 379.018c-4.143 0-7.5 3.357-7.5 7.5v54.84h-101.29c-4.143 0-7.5 3.357-7.5 7.5s3.357 7.5 7.5 7.5h106.22c5.553 0 10.07-4.518 10.07-10.07v-59.77c0-4.143-3.358-7.5-7.5-7.5z"/><path d="m502.283 60.295h-30.094v-11.767c0-7.784-6.332-14.116-14.116-14.116h-62.01c-4.143 0-7.5 3.357-7.5 7.5s3.357 7.5 7.5 7.5h61.126v354.409h-61.126c-4.143 0-7.5 3.357-7.5 7.5s3.357 7.5 7.5 7.5h62.01c7.784 0 14.116-6.333 14.116-14.117v-329.409h25.164v279.26c0 4.143 3.357 7.5 7.5 7.5s7.5-3.357 7.5-7.5v-284.188c.001-5.554-4.517-10.072-10.07-10.072z"/><path d="m359.804 27.116h-35.27c-7.587 0-13.76 6.173-13.76 13.76v434.344c0 3.446 1.737 6.606 4.647 8.453 2.91 1.848 6.512 2.073 9.631.604l17.116-8.063 17.118 8.064c1.364.642 2.82.96 4.271.96 1.865 0 3.721-.526 5.358-1.565 2.91-1.847 4.647-5.007 4.647-8.453v-363.109c0-4.143-3.357-7.5-7.5-7.5s-7.5 3.357-7.5 7.5v355.244l-13.198-6.218c-2.023-.953-4.369-.953-6.393 0l-13.198 6.218v-425.239h32.789v38.033c0 4.143 3.357 7.5 7.5 7.5s7.5-3.357 7.5-7.5v-39.274c.001-7.586-6.171-13.759-13.758-13.759z"/><path d="m220.823 108.92h-136.233c-4.143 0-7.5 3.357-7.5 7.5s3.357 7.5 7.5 7.5h136.233c4.143 0 7.5-3.357 7.5-7.5s-3.357-7.5-7.5-7.5z"/><path d="m220.823 153.982h-83.312c-4.143 0-7.5 3.357-7.5 7.5s3.357 7.5 7.5 7.5h83.312c4.143 0 7.5-3.357 7.5-7.5s-3.357-7.5-7.5-7.5z"/><path d="m220.823 199.043h-136.233c-4.143 0-7.5 3.357-7.5 7.5s3.357 7.5 7.5 7.5h136.233c4.143 0 7.5-3.357 7.5-7.5s-3.357-7.5-7.5-7.5z"/><path d="m220.823 244.106h-136.233c-4.143 0-7.5 3.357-7.5 7.5s3.357 7.5 7.5 7.5h136.233c4.143 0 7.5-3.357 7.5-7.5s-3.357-7.5-7.5-7.5z"/><path d="m84.59 304.167h90.124c4.143 0 7.5-3.357 7.5-7.5s-3.357-7.5-7.5-7.5h-90.124c-4.143 0-7.5 3.357-7.5 7.5s3.357 7.5 7.5 7.5z"/><path d="m84.59 349.229h136.233c4.143 0 7.5-3.357 7.5-7.5s-3.357-7.5-7.5-7.5h-136.233c-4.143 0-7.5 3.357-7.5 7.5s3.357 7.5 7.5 7.5z"/><path d="m84.59 168.982h20.436c4.143 0 7.5-3.357 7.5-7.5s-3.357-7.5-7.5-7.5h-20.436c-4.143 0-7.5 3.357-7.5 7.5s3.357 7.5 7.5 7.5z"/><path d="m220.823 289.167h-15.72c-4.143 0-7.5 3.357-7.5 7.5s3.357 7.5 7.5 7.5h15.72c4.143 0 7.5-3.357 7.5-7.5s-3.357-7.5-7.5-7.5z"/><path d="m398.57 123.919h30.192c4.143 0 7.5-3.357 7.5-7.5s-3.357-7.5-7.5-7.5h-30.192c-4.143 0-7.5 3.357-7.5 7.5s3.358 7.5 7.5 7.5z"/><path d="m398.57 168.981h30.192c4.143 0 7.5-3.357 7.5-7.5s-3.357-7.5-7.5-7.5h-30.192c-4.143 0-7.5 3.357-7.5 7.5s3.358 7.5 7.5 7.5z"/><path d="m398.57 214.043h30.192c4.143 0 7.5-3.357 7.5-7.5s-3.357-7.5-7.5-7.5h-30.192c-4.143 0-7.5 3.357-7.5 7.5s3.358 7.5 7.5 7.5z"/><path d="m398.57 259.105h30.192c4.143 0 7.5-3.357 7.5-7.5s-3.357-7.5-7.5-7.5h-30.192c-4.143 0-7.5 3.357-7.5 7.5s3.358 7.5 7.5 7.5z"/><path d="m398.57 349.228h30.192c4.143 0 7.5-3.357 7.5-7.5s-3.357-7.5-7.5-7.5h-30.192c-4.143 0-7.5 3.357-7.5 7.5s3.358 7.5 7.5 7.5z"/><path d="m398.57 304.167h30.192c4.143 0 7.5-3.357 7.5-7.5s-3.357-7.5-7.5-7.5h-30.192c-4.143 0-7.5 3.357-7.5 7.5s3.358 7.5 7.5 7.5z"/></g></g></svg>