<?xml version="1.0"?>
<svg xmlns="http://www.w3.org/2000/svg" id="Capa_1" enable-background="new 0 0 512 512" height="512px" viewBox="0 0 512 512" width="512px" class=""><g><g><g><g><path d="m7.499 112.075v287.882c0 18.341 15.006 33.346 33.346 33.346h430.307c18.341 0 33.347-15.006 33.347-33.346 0-10.286 0-277.561 0-287.882 0-18.341-15.006-33.347-33.347-33.347h-430.306c-18.341 0-33.347 15.006-33.347 33.347z" fill="#695d67" data-original="#A6E7F0" class="" style="fill:#A6E7F0" data-old_color="#695d67"/><path d="m42.013 399.957v-287.882c0-18.341 15.006-33.347 33.346-33.347h-34.513c-18.341 0-33.346 15.006-33.346 33.347v287.882c0 18.341 15.006 33.346 33.346 33.346h34.513c-18.341 0-33.346-15.006-33.346-33.346z" fill="#544e55" data-original="#6BD9E7" class="" style="fill:#6BD9E7" data-old_color="#544e55"/><path d="m40.013 112.075v287.881c0 .382.452.834.833.834h401.045c.382 0 .833-.452.833-.834v-287.881c0-.382-.452-.834-.833-.834-5.707 0-394.013 0-401.045 0-.382 0-.833.452-.833.834z" fill="#ff656f" data-original="#FC9085" class="" style="fill:#FC9085" data-old_color="#ff656f"/><path d="m74.526 399.956v-287.881c0-.382.452-.834.833-.834-20.417 0-33.285 0-34.513 0-.381 0-.833.452-.833.834v287.881c0 .382.452.834.833.834h34.513c-.381 0-.833-.452-.833-.834z" fill="#ff4756" data-original="#FC7C6A" class="" style="fill:#FC7C6A" data-old_color="#ff4756"/><path d="m240.378 163.587c-36.048 0-65.542 29.494-65.542 65.542 0 36.048 29.494 65.542 65.542 65.542 36.048 0 65.542-29.494 65.542-65.542 0-36.048-29.494-65.542-65.542-65.542z" fill="#dfebfa" data-original="#A6E7F0" class="" style="fill:#A6E7F0" data-old_color="#dfebfa"/><path d="m221.836 229.129c0-27.774 17.517-51.642 42.042-61.142-7.306-2.83-15.226-4.4-23.5-4.4-36.048 0-65.542 29.494-65.542 65.542s29.494 65.542 65.542 65.542c8.274 0 16.194-1.57 23.5-4.4-24.525-9.501-42.042-33.368-42.042-61.142z" fill="#b1dbfc" data-original="#6BD9E7" class="" style="fill:#6BD9E7" data-old_color="#b1dbfc"/><path d="m267.841 223.266-37.256-22.44c-4.561-2.747-10.374.538-10.374 5.862v44.88c0 5.324 5.813 8.609 10.374 5.862l37.256-22.44c4.416-2.66 4.416-9.063 0-11.724z" fill="#ff656f" data-original="#FC9085" class="" style="fill:#FC9085" data-old_color="#ff656f"/><path d="m315.045 334.587h-221.667c-7.732 0-14 6.268-14 14s6.268 14 14 14h221.667z" fill="#dfebfa" data-original="#A6E7F0" class="" style="fill:#A6E7F0" data-old_color="#dfebfa"/><path d="m387.378 334.587h-72.333v28h72.333c7.732 0 14-6.268 14-14s-6.268-14-14-14z" fill="#ff4756" data-original="#FC7C6A" class="" style="fill:#FC7C6A" data-old_color="#ff4756"/></g><g><path d="m477.814 262.458v-12.916c0-4.142-3.357-7.5-7.5-7.5s-7.5 3.358-7.5 7.5v12.916c0 4.142 3.357 7.5 7.5 7.5s7.5-3.358 7.5-7.5z" data-original="#000000" class="active-path"/><path d="m313.42 229.113c0-40.275-32.767-73.042-73.042-73.042s-73.041 32.766-73.041 73.042 32.766 73.042 73.041 73.042 73.042-32.767 73.042-73.042zm-131.083 0c0-32.004 26.037-58.042 58.041-58.042 32.005 0 58.042 26.037 58.042 58.042s-26.037 58.042-58.042 58.042c-32.004-.001-58.041-26.038-58.041-58.042z" data-original="#000000" class="active-path"/><path d="m271.711 216.827-37.256-22.441c-9.539-5.746-21.743 1.143-21.743 12.287v44.88c0 11.219 12.279 17.986 21.744 12.287l37.255-22.44c9.267-5.582 9.248-19.003 0-24.573zm-43.999 33.564v-42.556l35.325 21.278z" data-original="#000000" class="active-path"/><path d="m315.045 377.738c4.143 0 7.5-3.358 7.5-7.5v-.167h64.833c11.855 0 21.5-9.645 21.5-21.5s-9.645-21.5-21.5-21.5h-64.833c0-4.142-3.357-7.5-7.5-7.5s-7.5 3.358-7.5 7.5h-214.167c-11.855 0-21.5 9.645-21.5 21.5s9.645 21.5 21.5 21.5h214.167v.167c0 4.142 3.357 7.5 7.5 7.5zm7.5-35.667h64.833c3.584 0 6.5 2.916 6.5 6.5s-2.916 6.5-6.5 6.5h-64.833zm-229.167 13c-3.584 0-6.5-2.916-6.5-6.5s2.916-6.5 6.5-6.5h214.167v13z" data-original="#000000" class="active-path"/><path d="m40.846 440.788h430.308c22.522 0 40.847-18.324 40.847-40.846v-287.883c0-22.523-18.324-40.847-40.847-40.847h-197.654c-4.143 0-7.5 3.358-7.5 7.5s3.357 7.5 7.5 7.5h197.653c14.252 0 25.847 11.595 25.847 25.847v287.882c0 14.251-11.595 25.846-25.847 25.846h-430.307c-14.251.001-25.846-11.594-25.846-25.846v-287.882c0-14.252 11.595-25.847 25.846-25.847h197.654c4.143 0 7.5-3.358 7.5-7.5s-3.357-7.5-7.5-7.5h-197.654c-22.523 0-40.846 18.324-40.846 40.847v287.882c0 22.523 18.323 40.847 40.846 40.847z" data-original="#000000" class="active-path"/><path d="m442.725 246c4.143 0 7.5-3.358 7.5-7.5v-126.44c0-4.518-3.816-8.334-8.334-8.334h-401.045c-4.517 0-8.333 3.816-8.333 8.334v287.88c0 4.518 3.816 8.334 8.333 8.334h401.045c4.518 0 8.334-3.816 8.334-8.334v-126.44c0-4.142-3.357-7.5-7.5-7.5s-7.5 3.358-7.5 7.5v119.774h-387.712v-274.548h387.712v119.774c0 4.142 3.357 7.5 7.5 7.5z" data-original="#000000" class="active-path"/></g></g></g></g> </svg>
